<svg xmlns="http://www.w3.org/2000/svg" xmlns:xlink="http://www.w3.org/1999/xlink" version="1.1" width="68.77811227129611" height="117.92461190508517" viewBox="-0.11770813607530117 0.1427877650324869 68.77811227129611 117.92461190508517">
  <!-- Exported by Scratch - http://scratch.mit.edu/ -->
  <g id="ID0.03081228258088231">
    <path id="ID0.8961882567964494" fill="#00CC44" stroke="#009933" stroke-width="4.33939156817111" stroke-linecap="round" d="M 34.8322 2.3147 C 38.915 2.1237 41.3604 14.3226 42.92 20.9483 C 45.9367 33.3753 48.3559 46.2209 48.4666 59.063 C 48.5812 72.4498 46.3244 85.8615 43.1701 98.8399 C 41.8555 104.9974 39.4236 115.908 35.1969 115.8977 C 30.9378 115.8875 27.9874 105.2177 26.572 98.8932 C 23.3759 86.0219 21.5338 72.5084 21.5625 59.1494 C 21.5891 46.4674 23.5226 33.7185 26.4317 21.4351 C 27.985 14.6108 30.5911 2.515 34.8322 2.3147 Z "/>
    <path id="ID0.40610693907365203" fill="#666666" stroke="#009933" stroke-width="2.4743081894201624" d="M 35.0607 43.1684 C 37.1081 43.1619 38.969 44.7704 40.3222 47.3752 C 41.6741 49.98 42.5171 53.5812 42.5298 57.5574 C 42.5426 61.5336 41.7228 65.14 40.3876 67.7535 C 39.0512 70.367 37.2007 71.9874 35.1532 71.994 C 33.1057 72.0005 31.2448 70.392 29.8917 67.7872 C 28.5398 65.1824 27.6968 61.5812 27.6841 57.605 C 27.6713 53.6288 28.4911 50.0224 29.8262 47.4089 C 31.1626 44.7954 33.0132 43.175 35.0607 43.1684 Z "/>
    <path id="ID0.005777690559625626" fill="#FF0000" stroke="#CC0000" stroke-width="1.9999999906599542" stroke-linecap="round" d="M 25.1654 57.1062 C 23.7574 55.5727 25.9831 52.6486 25.2695 50.6058 C 24.9728 49.7628 22.9533 48.9953 22.517 49.8147 C 21.4694 52.1471 21.4397 55.0302 22.0415 57.4662 C 22.3638 58.7922 23.9194 59.6122 25.175 60.1062 C 26.9893 60.8184 29.0495 61.5028 30.9532 61.0876 C 31.7133 60.8132 31.1348 59.4061 31.0452 58.5873 C 30.9742 57.9866 31.2792 57.0416 30.7899 56.9381 C 28.9273 56.4491 26.4338 58.4821 25.1654 57.1062 Z "/>
    <path id="ID0.005777690559625626" fill="#FF0000" stroke="#CC0000" stroke-width="1.9999999906599542" stroke-linecap="round" d="M 45.364 57.388 C 46.7621 55.8455 44.5177 52.9357 45.2181 50.8884 C 45.5094 50.0435 47.5239 49.263 47.9656 50.0796 C 49.028 52.4052 49.0763 55.288 48.4901 57.7279 C 48.1764 59.0559 46.626 59.8859 45.3736 60.388 C 43.564 61.1118 41.5082 61.8094 39.6019 61.4065 C 38.84 61.1369 39.4095 59.7261 39.4939 58.9068 C 39.5609 58.3056 39.2499 57.3626 39.7386 57.256 C 41.598 56.7551 44.1044 58.772 45.364 57.388 Z "/>
    <path id="ID0.4810132780112326" fill="#FF9400" stroke="#CC7700" stroke-width="1.9999999906599542" stroke-linecap="round" d="M 34.9349 53.2206 C 36.222 53.2584 37.7229 53.5286 38.6845 54.0365 C 39.6451 54.5444 40.1172 55.1959 40.2439 56.0285 C 40.4574 57.4259 40.8616 59.6756 39.5578 60.3558 C 38.2172 61.0961 36.5726 58.7593 34.953 58.8705 C 33.2264 58.9911 31.5076 61.5676 30.1594 60.8859 C 28.8531 60.1641 29.337 57.6436 29.6439 56.0626 C 29.8299 55.107 30.595 54.2105 31.3865 53.732 C 32.4907 53.1924 33.7687 53.1863 34.9349 53.2206 Z "/>
    <path id="ID0.34650125121697783" fill="#FF0000" stroke="#CC0000" stroke-width="1.9999999906599542" d="M 34.8716 56.371 C 36.4926 56.3658 37.9634 56.9211 39.0293 57.8227 C 40.0962 58.7253 40.7582 59.9732 40.7626 61.3521 C 40.767 62.7311 40.1131 63.9832 39.052 64.8927 C 37.9919 65.8011 36.5247 66.3658 34.9037 66.371 C 33.2827 66.3762 31.8119 65.8209 30.746 64.9193 C 29.6791 64.0168 29.0171 62.7689 29.0127 61.3899 C 29.0083 60.0109 29.6622 58.7588 30.7233 57.8494 C 31.7834 56.941 33.2506 56.3762 34.8716 56.371 Z "/>
    <path id="ID0.6086727590300143" fill="none" stroke="#000000" stroke-width="1.9999999906599542" stroke-linecap="round" d="M 15.6267 48.1325 L 54.8776 48.3565 "/>
    <path id="ID0.9789086752571166" fill="#FF9400" stroke="#CC7700" stroke-width="2.392846013445865" stroke-linecap="round" d="M 8.284 44.1041 C 10.026 44.2265 11.6476 45.1383 13.1012 45.9886 C 13.807 46.4423 14.5722 47.1549 14.5404 47.884 C 14.5047 48.6661 13.715 49.2526 12.9765 49.639 C 11.5831 50.5595 10.0523 51.5684 8.3084 51.704 C 6.7474 51.823 5.0232 51.2886 3.8909 50.6042 C 2.7586 49.9198 2.0553 48.9721 2.052 47.9241 C 2.0486 46.8761 2.7457 45.9238 3.8736 45.2322 C 5.0015 44.5406 6.725 43.9971 8.284 44.1041 Z "/>
    <path id="ID0.9789086752571166" fill="#FF9400" stroke="#CC7700" stroke-width="2.392846013445865" stroke-linecap="round" d="M 60.2342 44.4176 C 61.7691 44.2286 63.5194 44.833 64.6518 45.5174 C 65.7841 46.2017 66.4873 47.1495 66.4907 48.1975 C 66.494 49.2455 65.7969 50.1977 64.669 50.8893 C 63.5411 51.581 61.815 52.1375 60.2586 52.0175 C 58.5344 51.883 57.1143 50.8476 55.7821 49.9819 C 54.9892 49.5644 53.9924 49.0176 54.0022 48.2376 C 54.0097 47.5956 55.129 47.2 55.772 46.8319 C 57.2145 45.9223 58.5125 44.6331 60.2342 44.4176 Z "/>
  </g>
</svg>